<svg id="flat" height="512" viewBox="0 0 512 512" width="512" xmlns="http://www.w3.org/2000/svg"><path d="m424 248v26.43994a241.4224 241.4224 0 0 1 -22.65 102.10006 123.82715 123.82715 0 0 1 -214.25 17.78l-18.48-26.87-120.62-175.45h-24v-128a37.24211 37.24211 0 0 1 33.93 21.85l30.07 66.15 148.72 154.91992 43.28 45.08008 23.11-104z" fill="#ffceb6"/><path d="m424 152v96h-56v-16h-8a32.004 32.004 0 0 1 -32-32v-32a47.94823 47.94823 0 0 1 48-48h16a32.004 32.004 0 0 1 32 32z" fill="#ffceb6"/><path d="m424 248v26.43994a241.4224 241.4224 0 0 1 -22.65 102.10006 123.89051 123.89051 0 0 1 -15.12 24.49l-106.23-49.03 23.11-104z" fill="#548aff"/><path d="m424 152v56h-24l-32-32v-24h-37.27a48.026 48.026 0 0 1 45.27-32h16a32.004 32.004 0 0 1 32 32z" fill="#b1712c"/><path d="m386.23 401.03a123.82776 123.82776 0 0 1 -199.13-6.71l-18.48-26.87 68.1-60.53 43.28 45.08z" fill="#ffc431"/><path d="m88 152-40 40h-24v-128a37.24211 37.24211 0 0 1 33.93 21.85z" fill="#d1e4ff"/><path d="m447.99994 120h.00006a40 40 0 0 1 40 40v120a0 0 0 0 1 0 0h-.00006a63.99994 63.99994 0 0 1 -63.99994-63.99994v-72.00012a23.99994 23.99994 0 0 1 23.99994-23.99994z" fill="#a36522"/><g fill="#bdd1f2"><path d="m128 440h312v16h-312z"/><path d="m96 440h16v16h-16z"/><path d="m456 440h16v16h-16z"/></g><path d="m350.05888 238.05888-132.11776-132.11776a33.9411 33.9411 0 0 0 -24-9.94112 33.94109 33.94109 0 0 0 -33.94112 33.94109 33.9411 33.9411 0 0 0 9.94112 24l132.11776 132.11779a33.9411 33.9411 0 0 0 24 9.94112h.00005a33.94109 33.94109 0 0 0 33.94107-33.94109v-.00005a33.9411 33.9411 0 0 0 -9.94112-23.99998z" fill="#ffceb6"/></svg>