<svg id="Capa_1" enable-background="new 0 0 512 512" height="512" viewBox="0 0 512 512" width="512" xmlns="http://www.w3.org/2000/svg"><g><g><path d="m465.995 402.44c28.992-41.497 46.005-91.978 46.005-146.44 0-141.38-114.62-256-256-256s-256 114.62-256 256c0 54.462 17.013 104.943 46.005 146.44z" fill="#66fade"/></g><g><path d="m86.01 447.41h339.98c15.025-13.354 28.468-28.449 40.01-44.97v-332.44c0-27.61-22.39-50-50-50h-320c-27.61 0-50 22.39-50 50v332.44c11.542 16.521 24.985 31.616 40.01 44.97z" fill="#8c4f5c"/></g><g><path d="m86.01 447.41h339.98c15.025-13.354 28.468-28.449 40.01-44.97v-136.44c0 11.046-8.954 20-20 20s-20-8.954-20-20h-340c0 11.046-8.954 20-20 20s-20-8.954-20-20v136.44c11.542 16.521 24.985 31.616 40.01 44.97z" fill="#7b3c47"/></g><g><path d="m426 70v377.41c-45.21 40.18-104.76 64.59-170 64.59s-124.79-24.41-170-64.59v-377.41c0-5.51 4.49-10 10-10h320c5.51 0 10 4.49 10 10z" fill="#ebf0f3"/></g><g><path d="m136 70c0-5.51 4.49-10 10-10h-50c-5.51 0-10 4.49-10 10v377.41c15.161 13.474 31.94 25.164 50 34.765z" fill="#ceddf7"/></g><g><g><g><circle cx="303.5" cy="382.5" fill="#0c99e6" r="81.999"/></g><g><path d="m285.764 382.5c0-33.882 20.551-62.963 49.868-75.462-9.868-4.207-20.727-6.537-32.132-6.537-45.287 0-81.999 36.712-81.999 81.999s36.712 81.999 81.999 81.999c11.404 0 22.264-2.33 32.132-6.537-29.317-12.499-49.868-41.58-49.868-75.462z" fill="#0b88f9"/></g><g><path d="m385.499 387.967h-163.998c-3.019 0-5.467-2.447-5.467-5.467 0-3.019 2.447-5.467 5.467-5.467h163.998c3.019 0 5.467 2.447 5.467 5.467 0 3.019-2.448 5.467-5.467 5.467z" fill="#066ae7"/></g><g><path d="m280.297 382.5c0-3.019 2.447-5.467 5.467-5.467h-64.263c-3.019 0-5.467 2.447-5.467 5.467 0 3.019 2.447 5.467 5.467 5.467h64.263c-3.019 0-5.467-2.448-5.467-5.467z" fill="#045bba"/></g><g><path d="m381.855 417.122h-156.71c-3.019 0-5.467-2.447-5.467-5.467 0-3.019 2.447-5.467 5.467-5.467h156.709c3.019 0 5.467 2.448 5.467 5.467 0 3.019-2.447 5.467-5.466 5.467z" fill="#066ae7"/></g><g><path d="m280.297 411.655c0-3.019 2.447-5.467 5.467-5.467h-60.619c-3.019 0-5.467 2.447-5.467 5.467s2.447 5.467 5.467 5.467h60.619c-3.019 0-5.467-2.448-5.467-5.467z" fill="#045bba"/></g><g><path d="m365.455 446.277h-123.91c-3.019 0-5.467-2.447-5.467-5.467 0-3.019 2.447-5.467 5.467-5.467h123.91c3.019 0 5.467 2.447 5.467 5.467 0 3.02-2.448 5.467-5.467 5.467z" fill="#066ae7"/></g><g><path d="m280.297 440.811c0-3.019 2.447-5.467 5.467-5.467h-44.219c-3.019 0-5.467 2.447-5.467 5.467 0 3.019 2.447 5.467 5.467 5.467h44.219c-3.019-.001-5.467-2.448-5.467-5.467z" fill="#045bba"/></g><g><path d="m381.855 358.811h-156.71c-3.019 0-5.467-2.448-5.467-5.467 0-3.019 2.447-5.467 5.467-5.467h156.709c3.019 0 5.467 2.447 5.467 5.467 0 3.02-2.447 5.467-5.466 5.467z" fill="#066ae7"/></g><g><path d="m280.297 353.345c0-3.019 2.447-5.467 5.467-5.467h-60.619c-3.019 0-5.467 2.447-5.467 5.467 0 3.019 2.447 5.467 5.467 5.467h60.619c-3.019-.001-5.467-2.448-5.467-5.467z" fill="#045bba"/></g><g><path d="m365.455 329.656h-123.91c-3.019 0-5.467-2.447-5.467-5.467 0-3.019 2.447-5.467 5.467-5.467h123.91c3.019 0 5.467 2.447 5.467 5.467 0 3.02-2.448 5.467-5.467 5.467z" fill="#066ae7"/></g><g><path d="m280.297 324.189c0-3.019 2.447-5.467 5.467-5.467h-44.219c-3.019 0-5.467 2.447-5.467 5.467s2.447 5.467 5.467 5.467h44.219c-3.019 0-5.467-2.447-5.467-5.467z" fill="#045bba"/></g></g></g><g><path d="m172.979 245.251h-50c-9.649 0-17.5-7.851-17.5-17.5v-50c0-9.649 7.851-17.5 17.5-17.5h50c9.649 0 17.5 7.851 17.5 17.5v50c0 9.649-7.851 17.5-17.5 17.5zm-50-70c-1.379 0-2.5 1.121-2.5 2.5v50c0 1.379 1.121 2.5 2.5 2.5h50c1.379 0 2.5-1.121 2.5-2.5v-50c0-1.379-1.121-2.5-2.5-2.5z" fill="#aac5ee"/></g><g><path d="m306 107.5h-100c-15.163 0-27.5-12.337-27.5-27.5v-60c0-4.143 3.357-7.5 7.5-7.5h140c4.143 0 7.5 3.357 7.5 7.5v60c0 15.163-12.337 27.5-27.5 27.5zm-112.5-80v52.5c0 6.893 5.607 12.5 12.5 12.5h100c6.893 0 12.5-5.607 12.5-12.5v-52.5z" fill="#ffcf11"/></g><g><path d="m336 40h-160c-11.046 0-20-8.954-20-20 0-11.046 8.954-20 20-20h160c11.046 0 20 8.954 20 20 0 11.046-8.954 20-20 20z" fill="#ffe854"/></g><g><path d="m256 20c0-11.046 8.954-20 20-20h-100c-11.046 0-20 8.954-20 20 0 11.046 8.954 20 20 20h100c-11.046 0-20-8.954-20-20z" fill="#ffcf11"/></g><g><g><path d="m266 211.25v-22.5c24.755-4.951 50.245-4.951 75 0v22.5c-24.755 4.951-50.245 4.951-75 0z" fill="#303a59"/></g><g><path d="m303.5 185.037c-12.561 0-25.123 1.238-37.5 3.713v22.5c12.377 2.475 24.938 3.713 37.499 3.713-8.263-.001-14.962-6.7-14.962-14.963 0-8.264 6.699-14.963 14.963-14.963z" fill="#232d47"/></g><g><path d="m378.5 245h-15c-4.142 0-7.5-3.358-7.5-7.5v-75c0-4.142 3.358-7.5 7.5-7.5h15c4.142 0 7.5 3.358 7.5 7.5v75c0 4.142-3.358 7.5-7.5 7.5z" fill="#303a59"/></g><g><path d="m378.5 215.057h-15c-4.142 0-7.5-3.358-7.5-7.5v29.943c0 4.142 3.358 7.5 7.5 7.5h15c4.142 0 7.5-3.358 7.5-7.5v-29.943c0 4.143-3.358 7.5-7.5 7.5z" fill="#232d47"/></g><g><path d="m356 260h-15c-4.142 0-7.5-3.358-7.5-7.5v-105c0-4.142 3.358-7.5 7.5-7.5h15c4.142 0 7.5 3.358 7.5 7.5v105c0 4.142-3.358 7.5-7.5 7.5z" fill="#3e4a68"/></g><g><path d="m356 230.057h-15c-4.142 0-7.5-3.358-7.5-7.5v29.943c0 4.142 3.358 7.5 7.5 7.5h15c4.142 0 7.5-3.358 7.5-7.5v-29.943c0 4.143-3.358 7.5-7.5 7.5z" fill="#303a59"/></g><g><path d="m228.5 245h15c4.142 0 7.5-3.358 7.5-7.5v-75c0-4.142-3.358-7.5-7.5-7.5h-15c-4.142 0-7.5 3.358-7.5 7.5v75c0 4.142 3.358 7.5 7.5 7.5z" fill="#303a59"/></g><g><path d="m228.5 215.057h15c4.142 0 7.5-3.358 7.5-7.5v29.943c0 4.142-3.358 7.5-7.5 7.5h-15c-4.142 0-7.5-3.358-7.5-7.5v-29.943c0 4.143 3.358 7.5 7.5 7.5z" fill="#232d47"/></g><g><path d="m251 260h15c4.142 0 7.5-3.358 7.5-7.5v-105c0-4.142-3.358-7.5-7.5-7.5h-15c-4.142 0-7.5 3.358-7.5 7.5v105c0 4.142 3.358 7.5 7.5 7.5z" fill="#3e4a68"/></g><g><path d="m251 230.057h15c4.142 0 7.5-3.358 7.5-7.5v29.943c0 4.142-3.358 7.5-7.5 7.5h-15c-4.142 0-7.5-3.358-7.5-7.5v-29.943c0 4.143 3.358 7.5 7.5 7.5z" fill="#303a59"/></g></g><g><g><path d="m147.979 220.962c-2.447 0-4.74-1.193-6.144-3.198l-15-21.422c-2.376-3.393-1.552-8.069 1.842-10.445 3.394-2.377 8.07-1.551 10.445 1.842l8.856 12.647 8.856-12.647c2.377-3.393 7.052-4.218 10.445-1.842s4.218 7.053 1.842 10.445l-15 21.422c-1.402 2.005-3.695 3.198-6.142 3.198z" fill="#ff3345"/></g></g><g><path d="m172.979 425h-50c-9.649 0-17.5-7.851-17.5-17.5v-50c0-9.649 7.851-17.5 17.5-17.5h50c9.649 0 17.5 7.851 17.5 17.5v50c0 9.649-7.851 17.5-17.5 17.5zm-50-70c-1.379 0-2.5 1.121-2.5 2.5v50c0 1.379 1.121 2.5 2.5 2.5h50c1.379 0 2.5-1.121 2.5-2.5v-50c0-1.379-1.121-2.5-2.5-2.5z" fill="#aac5ee"/></g><g><g><path d="m147.979 400.711c-2.447 0-4.74-1.193-6.144-3.198l-15-21.422c-2.376-3.393-1.552-8.069 1.842-10.445s8.07-1.552 10.445 1.842l8.856 12.647 8.856-12.647c2.377-3.393 7.052-4.217 10.445-1.842 3.394 2.376 4.218 7.053 1.842 10.445l-15 21.422c-1.402 2.005-3.695 3.198-6.142 3.198z" fill="#ff3345"/></g></g></g></svg>