<svg id="Capa_1" enable-background="new 0 0 512 512" height="512" viewBox="0 0 512 512" width="512" xmlns="http://www.w3.org/2000/svg"><g><path d="m380.731 7.505c-13.93-.265-25.331 11.473-25.331 25.405v90.557c0 9.149-7.417 16.567-16.567 16.567h-49.7-66.267-49.7c-9.15 0-16.567-7.417-16.567-16.567v-90.557c0-13.932-11.401-25.669-25.331-25.405-13.501.256-24.368 11.281-24.368 24.845v91.117c0 34.666 26.755 63.199 60.701 66.035 3.134.262 5.566 2.836 5.566 5.981v258.663c0 18.579 15.204 34.137 33.779 33.782 18.001-.344 32.487-15.044 32.487-33.127v-132.534h33.133v131.879c0 18.579 15.204 34.137 33.779 33.782 18.001-.344 32.487-15.044 32.487-33.127v-259.318c0-3.145 2.432-5.719 5.566-5.981 33.945-2.836 60.701-31.37 60.701-66.035v-91.117c.001-13.564-10.866-24.589-24.368-24.845z" fill="#ffdaaa"/><g fill="#ffbe8a"><path d="m133.6 32.91v90.557c0 9.149 7.417 16.566 16.567 16.566h23c-9.15 0-16.567-7.417-16.567-16.566v-90.557c0-13.932-11.401-25.669-25.331-25.405-4.017.076-7.797 1.112-11.131 2.878 7.991 4.284 13.462 12.877 13.462 22.527z"/><path d="m380.731 7.505c-4.282-.081-8.323.975-11.869 2.878 7.872 4.17 13.239 12.439 13.239 21.968v91.117c0 34.665-26.755 63.199-60.701 66.035-3.134.262-5.566 2.836-5.566 5.981v259.316c0 14.212-8.95 26.329-21.518 31.035 3.743 1.42 7.798 2.173 12.031 2.092 18.001-.344 32.487-15.044 32.487-33.127v-259.317c0-3.145 2.432-5.719 5.566-5.981 33.945-2.836 60.701-31.369 60.701-66.035v-91.117c-.001-13.564-10.868-24.589-24.37-24.845z"/><path d="m216.433 454.8c0 14.212-8.949 26.329-21.518 31.035 3.743 1.42 7.798 2.173 12.031 2.092 18.001-.344 32.487-15.044 32.487-33.127v-132.533h-23z"/></g><circle cx="256" cy="90.333" fill="#ffdaaa" r="49.7"/><circle cx="256" cy="90.333" fill="#ffdaaa" r="49.7"/><path d="m256 40.633c-3.96 0-7.807.477-11.5 1.352 21.901 5.191 38.2 24.86 38.2 48.348s-16.299 43.157-38.2 48.348c3.693.875 7.54 1.352 11.5 1.352 27.448 0 49.7-22.252 49.7-49.7s-22.252-49.7-49.7-49.7z" fill="#ffbe8a"/><path d="m173.167 272.567h165.667v-49.7c-27.449 0-49.7-22.251-49.7-49.7v-33.133h-66.267v33.133c0 27.449-22.251 49.7-49.7 49.7z" fill="#f2f6fc"/><path d="m239.433 355.4h-66.266v-82.833h165.666v82.833h-66.266v-33.133h-33.134z" fill="#19cffc"/><path d="m438.233 476.367h33.133v-462.867c0-3.314-2.686-6-6-6h-21.133c-3.314 0-6 2.686-6 6z" fill="#cdd2e1"/><path d="m315.833 272.567h23v-49.7c-8.302 0-16.121-2.046-23-5.645z" fill="#cdd2e1"/><path d="m315.833 272.567h23v82.833h-23z" fill="#27ade2"/><path d="m239.433 454.8v-33.133h-66.267v32.479c0 18.579 15.204 34.137 33.779 33.782 18.002-.345 32.488-15.045 32.488-33.128z" fill="#9ca1af"/><path d="m272.567 454.146c0 18.579 15.204 34.137 33.779 33.782 18.001-.344 32.487-15.044 32.487-33.127v-33.133h-66.267v32.478z" fill="#9ca1af"/><path d="m216.433 454.8c0 14.212-8.949 26.329-21.518 31.035.441.167.887.323 1.336.472.044.015.088.03.132.044.415.135.835.261 1.257.38.09.025.179.05.269.074.388.106.779.204 1.173.295.135.031.271.061.406.09.359.079.72.152 1.083.219.183.033.367.062.551.092.327.054.654.106.984.15.236.031.474.055.712.081.287.031.574.065.863.089.312.025.627.04.942.057.224.012.447.029.672.037.547.017 1.096.023 1.65.012 18.001-.344 32.487-15.044 32.487-33.127v-33.133h-23v33.133z" fill="#717891"/><path d="m315.833 454.8c0 14.212-8.95 26.329-21.518 31.035.441.167.887.324 1.337.472.044.014.087.029.131.044.415.135.835.261 1.257.38.09.025.179.05.269.074.388.106.78.204 1.173.295.135.031.271.061.406.09.359.079.72.152 1.083.219.183.033.367.062.551.092.327.054.654.106.984.15.236.031.474.055.712.081.287.031.574.065.863.089.312.025.627.04.942.057.224.012.447.029.672.037.547.017 1.097.023 1.65.012 18.001-.344 32.487-15.044 32.487-33.127v-33.133h-23v33.133z" fill="#717891"/><path d="m465.367 7.5h-21.133c-.318 0-.628.032-.933.08 2.869.449 5.067 2.925 5.067 5.92v462.867h23v-462.867c-.001-3.314-2.688-6-6.001-6z" fill="#9ca1af"/><path d="m481.933 504.5h-54.267c-3.314 0-6-2.686-6-6v-21.133c0-3.314 2.686-6 6-6h54.267c3.314 0 6 2.686 6 6v21.133c0 3.314-2.686 6-6 6z" fill="#ffda45"/><path d="m481.933 471.367h-23c3.314 0 6 2.686 6 6v27.133h17c3.314 0 6-2.686 6-6v-21.133c0-3.314-2.686-6-6-6z" fill="#ffae4d"/><path d="m40.633 476.367h33.133v-462.867c0-3.314-2.686-6-6-6h-21.133c-3.314 0-6 2.686-6 6z" fill="#cdd2e1"/><path d="m67.767 7.5h-21.134c-.318 0-.628.032-.933.08 2.869.449 5.067 2.925 5.067 5.92v462.867h23v-462.867c0-3.314-2.687-6-6-6z" fill="#9ca1af"/><path d="m84.333 504.5h-54.266c-3.314 0-6-2.686-6-6v-21.133c0-3.314 2.686-6 6-6h54.267c3.314 0 6 2.686 6 6v21.133c-.001 3.314-2.687 6-6.001 6z" fill="#ffda45"/><path d="m84.333 471.367h-23c3.314 0 6 2.686 6 6v27.133h17c3.314 0 6-2.686 6-6v-21.133c0-3.314-2.686-6-6-6z" fill="#ffae4d"/></g><path d="m487.934 463.867h-9.066v-456.367c0-4.143-3.357-7.5-7.5-7.5h-33.134c-4.143 0-7.5 3.357-7.5 7.5v17.35h-19.021c-3.393-14.232-16.207-24.85-31.463-24.85s-28.07 10.618-31.462 24.85h-185.576c-3.392-14.232-16.206-24.85-31.462-24.85s-28.07 10.618-31.463 24.85h-19.02v-17.35c0-4.143-3.357-7.5-7.5-7.5h-33.134c-4.143 0-7.5 3.357-7.5 7.5v456.367h-9.066c-4.143 0-7.5 3.357-7.5 7.5v33.133c0 4.143 3.357 7.5 7.5 7.5h66.267c4.143 0 7.5-3.357 7.5-7.5v-33.133c0-4.143-3.357-7.5-7.5-7.5h-9.066v-424.017h18.132v83.617c0 38.143 29.102 69.617 66.267 73.389v85.795c0 4.143 3.357 7.5 7.5 7.5s7.5-3.357 7.5-7.5v-2.584h150.666v67.833h-51.267v-18.134h9.066c4.143 0 7.5-3.357 7.5-7.5s-3.357-7.5-7.5-7.5h-16.566-33.133-16.566c-4.143 0-7.5 3.357-7.5 7.5s3.357 7.5 7.5 7.5h9.066v18.134h-51.267v-35.252c0-4.143-3.357-7.5-7.5-7.5s-7.5 3.357-7.5 7.5v142.152c0 22.405 18.227 40.634 40.633 40.634s40.634-18.228 40.634-40.634v-125.033h18.133v125.033c0 22.405 18.228 40.634 40.634 40.634s40.633-18.228 40.633-40.634v-257.945c37.165-3.771 66.267-35.246 66.267-73.389v-83.616h18.134v424.018h-9.066c-4.143 0-7.5 3.357-7.5 7.5v33.132c0 4.143 3.357 7.5 7.5 7.5h66.267c4.143 0 7.5-3.357 7.5-7.5v-33.133c-.001-4.142-3.359-7.5-7.501-7.5zm-405.101 33.133h-51.267v-18.133h9.066 33.134 9.066v18.133zm-34.7-33.133v-448.867h18.134v448.867zm183.801-100.967v51.267h-51.267v-51.267zm-25.634 117.534c-14.134 0-25.633-11.499-25.633-25.634v-25.633h51.267v25.633c0 14.135-11.499 25.634-25.634 25.634zm173.95-465.434c9.566 0 17.35 7.783 17.35 17.35v33.917h-34.7v-26.417h9.066c4.143 0 7.5-3.357 7.5-7.5s-3.357-7.5-7.5-7.5h-7.337c2.805-5.817 8.743-9.85 15.621-9.85zm-216.15 24.85h65.043c-18.038 9.634-30.343 28.646-30.343 50.483 0 16.692 7.19 31.734 18.632 42.2h-44.264c-5 0-9.067-4.067-9.067-9.066v-83.617zm49.7 50.483c0-23.27 18.931-42.2 42.2-42.2s42.2 18.931 42.2 42.2-18.931 42.2-42.2 42.2-42.2-18.93-42.2-42.2zm80.769 42.2c11.442-10.466 18.632-25.508 18.632-42.2 0-21.837-12.306-40.849-30.342-50.483h65.041v83.617c0 4.999-4.067 9.066-9.067 9.066zm-162.819-117.533c6.878 0 12.816 4.033 15.621 9.85h-7.337c-4.143 0-7.5 3.357-7.5 7.5s3.357 7.5 7.5 7.5h9.066v26.417h-34.7v-33.917c0-9.567 7.784-17.35 17.35-17.35zm-17.35 108.467v-42.2h34.7v42.2c0 13.271 10.797 24.066 24.067 24.066h42.2v25.634c0 20.709-14.998 37.969-34.7 41.519v-17.453h.783c4.143 0 7.5-3.357 7.5-7.5s-3.357-7.5-7.5-7.5h-8.283c-32.404 0-58.767-26.362-58.767-58.766zm66.267 141.599v-35.206c28.006-3.687 49.7-27.696 49.7-56.693v-25.634h51.266v25.634c0 28.997 21.694 53.006 49.7 56.693v35.207h-150.666zm150.666 97.834v51.267h-51.267v-51.267zm-25.633 117.534c-14.135 0-25.634-11.499-25.634-25.634v-25.633h51.267v25.633c0 14.135-11.499 25.634-25.633 25.634zm33.133-298.201h-8.283c-4.143 0-7.5 3.357-7.5 7.5s3.357 7.5 7.5 7.5h.783v17.453c-19.702-3.55-34.7-20.81-34.7-41.519v-25.634h42.2c13.27 0 24.067-10.796 24.067-24.066v-42.2h34.7v42.2c0 32.404-26.363 58.766-58.767 58.766zm106.9-167.233h18.134v448.867h-18.134zm34.701 482h-51.267v-18.133h9.066 33.134 9.066v18.133z"/></svg>