<?xml version="1.0" standalone="no"?>
<!DOCTYPE svg PUBLIC "-//W3C//DTD SVG 20010904//EN"
 "http://www.w3.org/TR/2001/REC-SVG-20010904/DTD/svg10.dtd">
<svg version="1.0" xmlns="http://www.w3.org/2000/svg"
 width="1280.000000pt" height="935.000000pt" viewBox="0 0 1280.000000 935.000000"
 preserveAspectRatio="xMidYMid meet">
<metadata>
Created by potrace 1.15, written by Peter Selinger 2001-2017
</metadata>
<g transform="translate(0.000000,935.000000) scale(0.100000,-0.100000)"
fill="#df2020" stroke="none">
<path d="M5005 9344 c-70 -8 -224 -45 -286 -70 -336 -131 -620 -422 -843 -864
-67 -132 -93 -219 -135 -459 -47 -263 -55 -363 -55 -691 l0 -315 52 -318 c29
-175 53 -340 53 -365 1 -26 6 -2 10 53 13 146 42 274 119 510 37 116 91 282
119 370 143 443 352 829 554 1022 134 128 271 203 409 224 61 10 86 9 155 -5
220 -44 424 -179 836 -551 290 -262 373 -320 522 -363 140 -41 316 -37 406 9
35 18 84 70 123 132 66 106 93 285 62 407 -24 94 -125 291 -203 394 -294 390
-896 743 -1463 856 -103 20 -344 34 -435 24z"/>
<path d="M8520 9001 c-75 -14 -231 -70 -300 -107 -141 -77 -263 -189 -342
-314 -37 -58 -98 -191 -116 -250 -94 -311 40 -703 315 -921 313 -248 772 -277
1109 -70 155 96 269 221 349 385 127 258 132 485 17 729 -105 224 -240 360
-453 462 -148 69 -221 86 -389 90 -80 2 -165 0 -190 -4z"/>
<path d="M11756 7369 c-9 -68 -40 -148 -119 -305 -204 -407 -399 -660 -722
-935 -313 -268 -583 -443 -759 -494 -144 -42 -302 27 -470 206 -99 105 -151
200 -236 434 -136 370 -203 500 -319 616 -118 118 -256 174 -367 149 -140 -32
-288 -203 -344 -400 -28 -98 -37 -265 -20 -377 14 -93 60 -252 110 -378 107
-272 324 -575 551 -772 268 -233 438 -317 678 -331 241 -15 438 34 711 180
411 218 772 574 1008 994 98 173 238 491 301 681 72 220 84 335 71 660 l-5
123 -31 0 c-30 0 -32 -2 -38 -51z"/>
<path d="M4439 5816 c-136 -40 -217 -110 -273 -237 -86 -199 -63 -451 60 -641
48 -75 180 -211 312 -322 l81 -68 -152 -167 c-272 -297 -526 -558 -978 -1006
-616 -609 -814 -810 -1339 -1355 -251 -261 -574 -586 -716 -722 -302 -287
-450 -435 -443 -442 3 -3 35 4 72 15 124 37 580 295 1277 722 496 304 691 420
1435 857 634 372 797 471 1025 624 199 132 326 225 400 293 51 46 114 94 464
351 l127 93 94 -51 c126 -68 255 -154 336 -223 l66 -57 10 -72 c10 -72 10 -74
-20 -118 -47 -69 -184 -200 -271 -259 -43 -29 -205 -118 -360 -198 -154 -80
-360 -187 -456 -238 -504 -266 -764 -392 -1138 -551 -166 -70 -342 -161 -342
-176 0 -12 174 -21 314 -15 438 17 854 75 1136 156 74 22 257 72 405 111 583
154 814 232 1058 357 391 200 702 507 818 806 29 76 31 89 26 172 -10 196 -90
344 -362 672 -169 203 -381 422 -558 575 -72 62 -176 154 -231 204 -311 279
-705 568 -929 681 -88 44 -384 168 -487 205 -150 52 -333 62 -461 24z"/>
<path d="M12155 1055 c-247 -18 -587 -42 -755 -54 -168 -12 -624 -44 -1015
-71 -390 -28 -838 -59 -995 -70 -552 -39 -1718 -120 -2000 -140 -157 -11 -607
-43 -1000 -70 -393 -27 -843 -59 -1000 -70 -157 -11 -607 -43 -1000 -70 -393
-27 -843 -59 -1000 -70 -157 -11 -607 -43 -1000 -70 -835 -58 -1118 -78 -1788
-125 -271 -19 -495 -35 -498 -35 -6 0 5 -201 11 -208 1 -1 127 7 281 18 153
11 603 42 999 70 396 28 846 59 1000 70 154 11 604 42 1000 70 673 47 846 59
1570 110 154 11 541 38 860 60 319 22 704 49 855 60 151 11 601 42 1000 70
399 28 849 59 1000 70 151 11 601 42 1000 70 399 28 849 59 1000 70 151 11
536 38 855 60 941 65 1160 81 1163 85 2 2 1 49 -3 104 l-8 101 -41 -1 c-22 -1
-243 -16 -491 -34z"/>
</g>
</svg>
